<svg width="100" height="47" viewBox="0 0 100 47" fill="none" xmlns="http://www.w3.org/2000/svg">
<path d="M33.9829 0H26.0541V4.65312H33.9829V0Z" fill="white"/>
<path d="M4.11557 20.4603C6.08097 22.3417 9.02066 23.8367 12.5483 23.8367C14.0433 23.8367 15.4544 23.3328 15.4544 22.3081C15.4544 21.2834 14.3625 20.7794 11.7588 20.3091C7.44163 19.5196 0.856711 18.5117 0.856711 11.9436C0.856711 7.50883 4.55233 3.46045 11.7252 3.46045C16.0087 3.46045 19.8555 4.66992 22.8288 7.10567L18.5957 12.7163C16.3279 11.0029 13.3882 10.1294 11.3052 10.1294C9.33983 10.1294 8.90307 10.8349 8.90307 11.5068C8.90307 12.5315 9.96136 12.8843 12.7499 13.3546C17.067 14.0937 23.4672 15.3536 23.4672 21.401C23.4672 27.1628 19.1836 30.5056 12.1619 30.5056C6.58492 30.5056 2.78851 28.8594 0 26.3397L4.11557 20.4603Z" fill="white"/>
<path d="M26.0541 30.0352V6.68567H33.9829V30.0352H26.0541Z" fill="white"/>
<path d="M38.2328 25.7517V30.0353H42.5163L38.2328 25.7517Z" fill="white"/>
<path d="M59.617 30.0353H67.5458V17.0503L59.617 24.9791V30.0353Z" fill="white"/>
<path d="M91.3993 30.0353L90.3746 26.6589H80.3292L79.3046 30.0353H70.7206L80.3796 3.86365H90.341L100 30.0353H91.3993ZM85.3519 10.8349L82.3618 20.0572H88.3252L85.3519 10.8349Z" fill="white"/>
<path d="M67.5457 0.0167983V11.07L59.617 18.9988L48.5973 30.0353L43.0539 24.4919L38.2328 19.654V8.58391V8.56711L48.5973 18.9484L67.5457 0V0.0167983Z" fill="white"/>
<path d="M63.5478 46.7495V36.9729H60.0874V36.1498H67.949V36.9729H64.4885V46.7495H63.5478Z" fill="white"/>
<path d="M67.3778 42.9027C67.3778 40.6686 68.8225 38.8879 71.0734 38.8879C73.3412 38.8879 74.7858 40.6686 74.7858 42.9027C74.7858 45.1369 73.358 46.9343 71.0734 46.9343C68.8225 46.9511 67.3778 45.1537 67.3778 42.9027ZM73.8787 42.9027C73.8787 41.2061 72.8708 39.6271 71.0566 39.6271C69.276 39.6271 68.2513 41.2061 68.2513 42.9027C68.2513 44.6161 69.276 46.1952 71.0566 46.1952C72.8708 46.1952 73.8787 44.6161 73.8787 42.9027Z" fill="white"/>
<path d="M82.2275 46.7495L79.1534 43.0875L77.7255 44.4313V46.7327H76.9024V36.133H77.7255V43.4402L82.2611 39.0559H83.3529L79.7749 42.5163L83.3361 46.7327H82.2275V46.7495Z" fill="white"/>
<path d="M87.838 38.8879C90.173 38.8879 91.4665 40.7525 91.4665 42.9531V43.1715H85.0495C85.1335 44.8345 86.2422 46.2288 88.0564 46.2288C89.0307 46.2288 89.921 45.8592 90.5762 45.1705L91.0129 45.708C90.257 46.4975 89.2827 46.9511 88.006 46.9511C85.7719 46.9511 84.1592 45.2881 84.1592 42.9195C84.1256 40.6854 85.7047 38.8879 87.838 38.8879ZM85.0327 42.5332H90.6098C90.593 41.2229 89.7362 39.6103 87.8044 39.6103C86.007 39.5935 85.0999 41.1893 85.0327 42.5332Z" fill="white"/>
<path d="M98.7737 46.7495V41.5421C98.7737 40.0638 98.0346 39.6103 96.9091 39.6103C95.918 39.6103 94.9101 40.2318 94.4062 40.9373V46.7327H93.5831V39.0559H94.4062V40.215C94.9605 39.5431 96.0524 38.8712 97.1779 38.8712C98.7401 38.8712 99.5969 39.6271 99.5969 41.3741V46.7495H98.7737Z" fill="white"/>
</svg>
